<?xml version="1.0" encoding="iso-8859-1"?>
<!-- Generator: Adobe Illustrator 19.0.0, SVG Export Plug-In . SVG Version: 6.00 Build 0)  -->
<svg version="1.1" id="Layer_1" xmlns="http://www.w3.org/2000/svg" xmlns:xlink="http://www.w3.org/1999/xlink" x="0px" y="0px"
	 viewBox="0 0 512 512" style="enable-background:new 0 0 512 512;" xml:space="preserve">
<path style="fill:#BA5AD1;" d="M289.332,205.614l-15.317-45.368c-6.956-20.603-36.027-20.795-43.254-0.286l-24.436,69.337
	c-2.087,5.923-6.518,10.728-12.253,13.288L23.555,318.692c-17.666,7.885-18.18,32.774-0.854,41.381l189.23,94.005
	c13.065,6.491,28.787-0.741,32.36-14.885l28.738-113.743c1.955-7.737,7.799-13.896,15.423-16.253l77.498-23.964
	c21.227-6.564,21.582-36.482,0.517-43.548l-50.195-16.838"/>
<path style="fill:#6C6993;" d="M492.865,77.023h-99.997c-3.928,0-7.113,3.184-7.113,7.113v19.905c0,3.942-1.566,7.722-4.353,10.509
	L200.26,295.693l20.938,20.938l178.862-178.862l96.539-43.301C505.572,90.443,502.7,77.023,492.865,77.023z"/>
<rect x="167.014" y="303.594" transform="matrix(-0.7071 -0.7071 0.7071 -0.7071 121.3075 680.7352)" style="fill:#FFFFFF;" width="69.249" height="23.3"/>
<path d="M200.652,365.208l-28.803-28.803c-3.906-3.905-10.236-3.905-14.143,0c-3.905,3.905-3.905,10.237,0,14.143l28.803,28.803
	c1.953,1.953,4.512,2.929,7.071,2.929c2.559,0,5.118-0.976,7.071-2.929C204.557,375.445,204.557,369.113,200.652,365.208z"/>
<path d="M151.697,316.254c-3.898-3.913-10.229-3.926-14.142-0.028c-3.913,3.897-3.926,10.229-0.028,14.142l0.123,0.124
	c1.954,1.961,4.519,2.943,7.085,2.943c2.553,0,5.105-0.971,7.057-2.915c3.913-3.897,3.926-10.229,0.028-14.142L151.697,316.254z"/>
<path d="M207.771,404.648c-4.703,2.895-6.17,9.054-3.275,13.757l0.012,0.02c1.888,3.067,5.16,4.753,8.514,4.753
	c1.789,0,3.602-0.48,5.238-1.488c4.703-2.895,6.164-9.063,3.27-13.767C218.635,403.221,212.478,401.753,207.771,404.648z"/>
<path d="M223.165,372.82c-4.703,2.895-6.17,9.054-3.275,13.758l0.012,0.019c1.888,3.067,5.16,4.753,8.514,4.753
	c1.789,0,3.602-0.48,5.238-1.488c4.703-2.894,6.164-9.063,3.27-13.767C234.028,371.393,227.871,369.925,223.165,372.82z"/>
<path d="M477.233,65.522c2.607,0,5.215-1.012,7.177-3.026c3.854-3.956,3.772-10.287-0.184-14.141
	c-3.955-3.854-10.286-3.772-14.141,0.184l-0.019,0.019c-3.854,3.956-3.763,10.277,0.192,14.131
	C472.202,64.581,474.717,65.522,477.233,65.522z"/>
<path d="M445.501,65.522c2.607,0,5.215-1.012,7.177-3.026c3.854-3.956,3.772-10.287-0.184-14.141
	c-3.955-3.854-10.285-3.772-14.141,0.184l-0.019,0.019c-3.854,3.956-3.763,10.277,0.192,14.131
	C440.47,64.581,442.986,65.522,445.501,65.522z"/>
<path d="M413.772,65.522c2.522,0,5.048-0.947,6.995-2.845c3.954-3.855,4.034-10.187,0.179-14.141
	c-3.855-3.955-10.188-4.034-14.142-0.179l-0.02,0.019c-3.954,3.855-4.024,10.177-0.169,14.132
	C408.574,64.515,411.171,65.522,413.772,65.522z"/>
<path d="M511.564,82.144c-1.905-8.902-9.594-15.12-18.698-15.12h-99.998c-9.436,0-17.112,7.677-17.112,17.112v19.905
	c0,1.299-0.506,2.521-1.424,3.438l-80.424,80.424l-10.418-30.856c-4.554-13.489-16.695-22.267-30.933-22.361
	c-0.078,0-0.154-0.001-0.231-0.001c-14.139,0-26.289,8.595-30.996,21.951l-24.436,69.337c-1.17,3.32-3.684,6.046-6.898,7.48
	L19.479,309.56c-11.745,5.242-19.206,16.486-19.472,29.345c-0.266,12.859,6.726,24.402,18.244,30.124l189.229,94.005
	c4.626,2.298,9.621,3.45,14.623,3.45c4.677,0,9.359-1.007,13.745-3.025c9.079-4.176,15.689-12.128,18.137-21.816l28.738-113.743
	c1.093-4.326,4.42-7.832,8.682-9.149l77.497-23.964c13.898-4.298,22.991-16.474,23.164-31.021
	c0.173-14.546-8.628-26.935-22.42-31.562l-37.351-12.53l73.534-73.534l94.861-42.548C508.997,99.866,513.469,91.046,511.564,82.144z
	 M334.938,188.749l-6.795-6.795l13.72-13.72l6.796,6.795L334.938,188.749z M220.227,331.489l-2.333,2.333l-34.827-34.827
	l2.334-2.334L220.227,331.489z M214.403,295.693l16.01-16.01l6.795,6.795l-16.01,16.01L214.403,295.693z M251.35,272.336
	l-6.795-6.795l13.72-13.72l6.795,6.795L251.35,272.336z M279.212,244.474l-6.795-6.795l13.72-13.721l6.795,6.795L279.212,244.474z
	 M307.075,216.61l-6.795-6.795l13.72-13.72l6.795,6.795L307.075,216.61z M363.286,251.166c6.557,2.199,8.835,7.828,8.781,12.362
	s-2.466,10.107-9.073,12.151l-77.496,23.964c-10.882,3.364-19.374,12.313-22.165,23.357l-28.738,113.744
	c-0.959,3.795-3.548,6.909-7.104,8.545c-3.555,1.636-7.605,1.575-11.111-0.166L27.15,351.116c-4.581-2.275-7.252-6.687-7.146-11.8
	c0.105-5.113,2.956-9.41,7.627-11.494l170.518-76.105c8.204-3.661,14.623-10.622,17.61-19.096l24.436-69.338
	c2.799-7.943,9.915-8.598,12.156-8.598c0.025,0,0.051,0,0.075,0c2.153,0.014,9.392,0.688,12.116,8.759l13.586,40.24l-78.71,78.71
	l-6.944-6.944c-1.876-1.875-4.419-2.929-7.071-2.929s-5.195,1.054-7.071,2.929l-16.476,16.476c-3.905,3.905-3.905,10.237,0,14.142
	l48.969,48.969c1.953,1.953,4.512,2.929,7.071,2.929s5.118-0.976,7.071-2.929l16.476-16.476c3.905-3.905,3.905-10.237,0-14.143
	l-6.944-6.944L316.5,235.47L363.286,251.166z M395.966,128.645c-1.109,0.498-2.118,1.193-2.979,2.053l-30.188,30.188l-6.796-6.795
	l32.47-32.47c4.695-4.696,7.281-10.939,7.281-17.58V87.024h93.005L395.966,128.645z"/>
<g>
</g>
<g>
</g>
<g>
</g>
<g>
</g>
<g>
</g>
<g>
</g>
<g>
</g>
<g>
</g>
<g>
</g>
<g>
</g>
<g>
</g>
<g>
</g>
<g>
</g>
<g>
</g>
<g>
</g>
</svg>
