<?xml version="1.0" encoding="iso-8859-1"?>
<!-- Generator: Adobe Illustrator 19.0.0, SVG Export Plug-In . SVG Version: 6.00 Build 0)  -->
<svg version="1.1" id="Layer_1" xmlns="http://www.w3.org/2000/svg" xmlns:xlink="http://www.w3.org/1999/xlink" x="0px" y="0px"
	 viewBox="0 0 512 512" style="enable-background:new 0 0 512 512;" xml:space="preserve">
<g>
	<path style="fill:#FF7D78;" d="M29.875,118.034v130.807h30v-49.024l16.208,13.039v35.985h30v-50.353L92.25,187.359l14.676-11.806
		v-30.755l-33.329-26.765H29.875V118.034z M76.925,161.185l-17.051,13.718v-26.868h3.167l13.883,11.149L76.925,161.185
		L76.925,161.185z"/>
	<path style="fill:#FF7D78;" d="M110.326,149.7v72.816l37.963,30.487l37.963-30.487V149.7l-37.963-30.487L110.326,149.7z
		 M156.253,208.132l-7.963,6.396l-7.963-6.396v-44.047l7.963-6.396l7.963,6.396V208.132z"/>
</g>
<g>
	<polygon style="fill:#F75853;" points="369.085,157.689 382.657,168.588 401.442,145.197 369.085,119.213 331.123,149.7 
		331.123,222.517 369.085,253.004 401.442,227.02 382.657,203.629 369.085,214.527 361.123,208.132 361.123,164.085 	"/>
	<polygon style="fill:#F75853;" points="448.111,172.737 478.101,148.652 459.316,125.262 439.166,141.444 439.166,121.556 
		409.166,121.556 409.166,250.189 439.166,250.189 439.166,204.04 452.125,214.462 452.125,250.189 482.125,250.189 
		482.125,200.091 	"/>
</g>
<g>
	<rect x="183.54" y="25.06" style="fill:#64DDE0;" width="43.28" height="27.964"/>
	<rect x="178.62" y="63.43" style="fill:#64DDE0;" width="46.23" height="27.964"/>
</g>
<rect x="231.56" y="108.77" style="fill:#CACACD;" width="51.53" height="203.79"/>
<rect x="257.32" y="108.77" style="fill:#A9A8AE;" width="25.765" height="203.79"/>
<polygon style="fill:#A9F0F0;" points="302.223,122.358 212.419,122.358 221.404,0 290.794,29.484 "/>
<polygon style="fill:#64DDE0;" points="290.794,29.484 257.321,15.261 257.321,122.358 302.223,122.358 "/>
<path style="fill:#A9F0F0;" d="M365.584,503.243c-1.138,1.138-2.385,2.2-3.737,3.175c-10.425,7.51-23.843,7.437-34.185-0.188l0,0
	l-71.053-52.385l-71.053,52.385c-10.341,7.625-23.76,7.698-34.185,0.188c-10.425-7.509-14.605-20.261-10.648-32.485l60.343-186.428
	c7.822-24.167,30.143-40.402,55.543-40.402c25.399,0,47.721,16.236,55.543,40.402l60.343,186.428
	C375.937,484.571,373.218,495.609,365.584,503.243z"/>
<path style="fill:#64DDE0;" d="M365.584,503.243c-1.138,1.138-2.385,2.2-3.737,3.175c-10.425,7.51-23.843,7.437-34.185-0.188l0,0
	l-71.053-52.385l0.001-206.742c25.399,0,47.721,16.236,55.543,40.402l60.343,186.428
	C375.937,484.571,373.218,495.609,365.584,503.243z"/>
<g>
	<rect x="221.16" y="374.47" style="fill:#FDE888;" width="70.888" height="27.354"/>
	<rect x="227.9" y="332.2" style="fill:#FDE888;" width="57.41" height="27.354"/>
</g>
<g>
	<polygon style="fill:#FBDA35;" points="292.051,401.82 256.667,401.879 256.667,374.526 292.052,374.466 	"/>
	<rect x="256.61" y="332.2" style="fill:#FBDA35;" width="28.705" height="27.354"/>
</g>
<g>
</g>
<g>
</g>
<g>
</g>
<g>
</g>
<g>
</g>
<g>
</g>
<g>
</g>
<g>
</g>
<g>
</g>
<g>
</g>
<g>
</g>
<g>
</g>
<g>
</g>
<g>
</g>
<g>
</g>
</svg>
